
        <svg xmlns="http://www.w3.org/2000/svg" xmlns:xlink="http://www.w3.org/1999/xlink" version="1.1" width="3300" 
        height="1275" viewBox="0 0 3300 1275">
			
			<g transform="scale(15) translate(10, 10)">
				<defs id="SvgjsDefs2766"></defs><g id="SvgjsG2767" featureKey="rootContainer" transform="matrix(1,0,0,1,0,0)" fill="#f3f1ec"><rect y="0" height="1" width="1" opacity="0"></rect><rect y="60" width="200" height="5"></rect></g><g id="SvgjsG2768" featureKey="nameFeature-0" transform="matrix(0.7813981549460223,0,0,0.7813981549460223,-0.9381081758205465,10.259083756532045)" fill="#f3f1ec"><path d="M1.96 48.6 c-0.6 0 -0.96 -1.36 -0.64 -1.4 c1.8 -0.2 3.72 -2.24 3.72 -6.96 l0 -23.4 c0 -2.8 -1.6 -3.36 -3.32 -3.6 c-0.32 -0.04 -0.08 -1.24 0.24 -1.24 l10.96 0 c0.32 0 0.56 1.2 0.24 1.24 c-1.72 0.24 -3.32 0.8 -3.32 3.6 l0 23.4 c0 4.04 -5.12 8.36 -7.88 8.36 z M38.486 20.48 c0 7.12 -6.68 10.12 -15.52 8.8 l0 5.76 c0 2.8 1.92 3.28 4.48 3.6 c0.28 0.04 0.08 1.36 -0.24 1.36 l-12.12 0 c-0.32 0 -0.56 -1.32 -0.24 -1.36 c2.04 -0.28 3.32 -1.08 3.32 -3.6 l0 -17.84 c0 -2.64 -1.4 -3.4 -3.32 -3.92 c-0.32 -0.08 -0.12 -1.4 0.24 -1.36 c1.56 0.2 3.32 0.24 4.6 0.24 c2.96 0 5.44 -0.24 7.48 -0.24 c6.2 0 11.32 2.28 11.32 8.56 z M26.166 14 c-2.52 0 -3.2 0.88 -3.2 3.2 l0 10.12 c6.8 0.96 10.36 -0.68 10.36 -5.92 c0 -4.76 -3.04 -7.4 -7.16 -7.4 z M41.932 31.68 c-0.72 0.12 -0.96 -2.4 -0.24 -2.52 l11.28 -1.84 c0.72 -0.12 0.96 2.4 0.24 2.52 z M64.658 40.64 c-3.28 0 -8.28 -1.44 -7.8 -3.2 l0.4 -1.48 c1.12 -4.2 2.44 1.96 9.04 1.96 c3.36 0 5 -1.64 5 -3.96 c0 -1.88 -1.2 -2.68 -4.04 -4.44 l-3.88 -2.44 c-4.32 -2.72 -6.08 -4.4 -6.08 -7.4 c0 -4.92 4.8 -8.32 9.76 -8.32 c3.04 0 6.92 1.32 6.48 2.68 l-0.48 1.52 c-1.24 3.88 -2.24 -1.48 -7.72 -1.48 c-2.84 0 -4.32 1.44 -4.32 3.56 c0 1.8 1.08 2.8 3.76 4.44 l4.2 2.6 c4.24 2.64 5.96 4.44 5.96 7.32 c0 5 -4.92 8.64 -10.28 8.64 z M76.74400000000001 40 c-0.32 0 -0.6 -1.16 -0.28 -1.2 c1.2 -0.16 2.72 -0.72 2.72 -3.04 l0 -17.6 c0 -4.4 -0.6 -5.24 -3.08 -5.52 c-0.32 -0.04 -0.2 -1.08 0.08 -1.12 l7.44 -1.6 c0.36 -0.08 0.68 0.2 0.56 0.72 c-0.28 1.28 -0.72 3.84 -0.72 9.12 l0 16 c0 2.32 1.52 2.88 2.76 3.04 c0.28 0.04 0.04 1.2 -0.28 1.2 l-9.2 0 z M95.424 40.68 c-2.4 -0.32 -8.2 -6.88 -10.52 -10.24 c-0.36 -0.52 -0.44 -0.92 0.12 -1.36 c3.36 -2.64 5.92 -4.92 4.12 -6.4 c-0.64 -0.52 -0.44 -1.28 0.24 -1.28 l8.48 0 c0.76 0 0.76 1.32 0 1.44 c-2.88 0.44 -5.8 2.08 -7.32 3.6 c-1.56 1.56 -1.96 2.24 -1.2 3.24 c2.28 3.04 7 8.2 9.68 8.52 c0.32 0.04 0.68 0.08 0.68 0.6 c0 0.4 -0.44 0.48 -0.96 0.68 z M106.15000000000002 40.64 c-2.76 0 -5.48 -1.64 -5.48 -4.88 c0 -2.16 1.28 -3.32 4.16 -4.24 l5.84 -1.88 c1.2 -0.4 1.56 -0.44 1.56 -1.44 l0 -1.6 c0 -2.48 -1.24 -2.76 -2.8 -2.76 c-2.12 0 -4.64 0.56 -6.12 0.72 c-0.36 0.04 -0.6 -0.16 -0.64 -0.44 l-0.08 -0.72 c-0.12 -1.04 5.96 -2.72 9 -2.72 c4.64 0 4.96 3.68 4.96 6.52 l0 8.44 c0 3.36 2.88 2 3.44 2.36 c0.2 0.12 0.28 0.4 0.28 0.56 c0 0.84 -3.4 2.08 -5.08 2.08 c-1.28 0 -2.08 -0.72 -3.04 -2.76 c-3.8 2.32 -4.64 2.76 -6 2.76 z M108.07000000000002 37.68 c2.04 0 4.2 -1.44 4.2 -3.48 l0 -3.12 c-0.24 0.16 -0.2 0.2 -0.96 0.44 l-4.04 1.36 c-1.28 0.44 -1.92 1.12 -1.92 2.32 c0 1.52 1.04 2.48 2.72 2.48 z M127.51600000000002 40.64 c-1.64 0 -3.84 -1.52 -3.84 -2.68 l0 -11.56 c0 -2.32 -0.68 -3 -3.48 -3 c-0.44 0 -0.44 -1.24 -0.12 -1.36 c3.04 -1.2 4.52 -2.28 6.68 -4.76 c0.52 -0.6 1.6 0 1.44 0.68 c-0.16 0.72 -0.24 1.32 -0.24 1.8 c0 1.44 0.64 1.88 1.6 1.88 c1.48 0 3.32 -0.4 4.76 -0.52 c0.4 -0.04 0.56 0.32 0.56 0.84 c0 1.04 -0.64 2.52 -1.28 2.48 l-1.56 -0.12 c-2.72 -0.2 -4.12 -0.16 -4.12 1.68 l0 9.44 c0 1.52 0.76 2.08 2.16 2.08 c1.24 0 3.44 -0.24 4.52 -0.36 c0.32 -0.04 0.68 1.16 0.28 1.32 c-2.2 0.88 -4.08 1.44 -7.36 2.16 z M152.562 36.92 c0.36 -0.08 0.68 1 0.44 1.12 c-1.56 0.76 -4.8 2.6 -5.56 2.6 c-4.92 0 -11.24 -2.32 -11.24 -9.4 c0 -4.76 2.92 -10.56 10.08 -10.56 c6.04 0 6.8 4.32 6.8 6 c0 1.04 -0.32 2.6 -0.72 3.52 l-11.88 0.32 c0.76 4.96 4.8 7.04 7.96 7.04 c0.36 0 2.08 -0.2 4.12 -0.64 z M144.882 23.24 c-3.16 0 -4.4 2.16 -4.52 5.2 l8.68 -0.28 c0.4 -2.16 -0.64 -4.92 -4.16 -4.92 z M167.568 20.68 c4.12 0 8.04 2.8 8.04 8.68 c0 5.28 -3.24 11.28 -11 11.28 c-3.12 0 -5.76 -0.92 -8 -2.24 c0.2 -1.48 0.24 -3.04 0.24 -4.6 l0 -15.84 c0 -4.28 -0.6 -5.04 -3.4 -5.32 c-0.32 -0.04 -0.2 -1.08 0.08 -1.12 l7.76 -1.6 c0.36 -0.08 0.68 0.2 0.56 0.72 c-0.28 1.28 -0.72 3.68 -0.72 7.32 l0 3 c0 3.16 1.88 -0.28 6.44 -0.28 z M166.12800000000001 38.2 c3.52 0 5.08 -2.52 5.08 -6.68 c0 -5.16 -2.48 -8.32 -5.64 -8.32 c-2.4 0 -4.44 1.88 -4.44 3.24 l0 8 c0 2.36 2.4 3.76 5 3.76 z M187.09400000000002 40.64 c-5.56 0 -9.72 -4 -9.72 -9.8 c0 -5.64 4 -10.16 9.88 -10.16 c5.56 0 9.72 4 9.72 9.8 c0 5.64 -3.96 10.16 -9.88 10.16 z M188.25400000000002 38.24 c1.96 0 4.36 -1.2 4.36 -5.8 c0 -5.24 -2.84 -9.36 -6.56 -9.36 c-1.92 0 -4.32 1.2 -4.32 5.76 c0 5.28 2.84 9.4 6.52 9.4 z M204.22 40.64 c-2.76 0 -5.48 -1.64 -5.48 -4.88 c0 -2.16 1.28 -3.32 4.16 -4.24 l5.84 -1.88 c1.2 -0.4 1.56 -0.44 1.56 -1.44 l0 -1.6 c0 -2.48 -1.24 -2.76 -2.8 -2.76 c-2.12 0 -4.64 0.56 -6.12 0.72 c-0.36 0.04 -0.6 -0.16 -0.64 -0.44 l-0.08 -0.72 c-0.12 -1.04 5.96 -2.72 9 -2.72 c4.64 0 4.96 3.68 4.96 6.52 l0 8.44 c0 3.36 2.88 2 3.44 2.36 c0.2 0.12 0.28 0.4 0.28 0.56 c0 0.84 -3.4 2.08 -5.08 2.08 c-1.28 0 -2.08 -0.72 -3.04 -2.76 c-3.8 2.32 -4.64 2.76 -6 2.76 z M206.14 37.68 c2.04 0 4.2 -1.44 4.2 -3.48 l0 -3.12 c-0.24 0.16 -0.2 0.2 -0.96 0.44 l-4.04 1.36 c-1.28 0.44 -1.92 1.12 -1.92 2.32 c0 1.52 1.04 2.48 2.72 2.48 z M218.74599999999998 40 c-0.32 0 -0.6 -1.16 -0.28 -1.2 c1.2 -0.16 2.76 -0.76 2.76 -3.52 l0 -9.12 c0 -1.92 -1.04 -2.36 -2.72 -2.56 c-0.32 -0.04 -0.16 -1.08 0.16 -1.16 l6.32 -1.76 c0.48 -0.12 0.68 0.2 0.68 0.56 c0 1.16 0.08 2.56 0.96 2 c1.48 -0.96 3.68 -2.56 5 -2.56 c0.56 0 2 1.16 1.88 1.8 c-0.36 1.92 -0.8 3.32 -1.4 3.32 c-0.2 0 -1.16 -1.04 -3.28 -1.04 c-1.6 0 -3.32 0.48 -3.32 2.56 l0 7.96 c0 2.76 1.12 2.96 4.76 3.52 c0.28 0.04 0.16 1.2 -0.64 1.2 l-10.88 0 z M256.872 38 c0.2 0.12 0.28 0.4 0.28 0.56 c0 0.84 -3.48 2.08 -5.16 2.08 c-1.28 0 -1.72 -2.52 -2.92 -2 c-1.72 0.76 -4.56 2 -5.92 2 c-4.4 0 -8.28 -3.4 -8.28 -9.24 c0 -5.4 3.36 -10.72 9.8 -10.72 c3.52 0 4.48 1.92 4.48 -0.68 l0 -3.44 c0 -2.88 -0.24 -3.44 -4.2 -3.92 c-0.28 -0.04 -0.2 -1.08 0.08 -1.12 l8.56 -1.6 c0.36 -0.08 0.68 0.2 0.56 0.72 c-0.28 1.28 -0.72 3.68 -0.72 7.32 l0 17.68 c0 3.4 2.88 2 3.44 2.36 z M249.152 35.68 l0 -9.64 c-0.84 -1.48 -2.4 -2.96 -4.96 -2.96 c-3.4 0 -5 2.36 -5 6.4 c0 5.24 2.84 8.64 5.88 8.64 c1.32 0 4.08 -1.48 4.08 -2.44 z"></path></g>
			</g>
		</svg>
	